<svg width="15" height="14" viewBox="0 0 15 14" fill="none" xmlns="http://www.w3.org/2000/svg">
<path d="M3.12759 0.206894H12.0802C13.4375 0.206894 14.5349 1.30431 14.5349 2.66164V11.2677C14.5349 12.625 13.4375 13.7224 12.0802 13.7224H3.12759C1.77027 13.7224 0.672852 12.625 0.672852 11.2677V2.66164C0.672852 1.30431 1.77027 0.206894 3.12759 0.206894Z" fill="black"/>
<path d="M7.96223 3.75906L6.22948 6.61811L8.07775 9.65044C8.0893 9.67355 8.09508 9.69665 8.0893 9.71975C8.08353 9.74286 8.06042 9.72553 8.02577 9.7313H6.7031C6.61068 9.7313 6.54715 9.72553 6.50672 9.66777C6.38542 9.42518 6.25836 9.18837 6.13706 8.94579C6.01577 8.70898 5.88292 8.46639 5.7443 8.21803C5.60568 7.96967 5.46706 7.7213 5.32844 7.46717H5.31689C5.1956 7.71553 5.06275 7.96389 4.92991 8.21225C4.79706 8.46061 4.66422 8.70898 4.53715 8.95156C4.4043 9.19415 4.27146 9.44251 4.13861 9.67932C4.11551 9.73708 4.0693 9.74286 4.00577 9.74286H2.73508C2.71198 9.74286 2.69465 9.75441 2.69465 9.72553C2.68887 9.70242 2.69465 9.67932 2.7062 9.66199L4.50249 6.7163L2.75241 3.75329C2.73508 3.73018 2.7293 3.70708 2.74086 3.69553C2.75241 3.6782 2.77551 3.67242 2.79861 3.67242H4.10973C4.13861 3.67242 4.16749 3.6782 4.1906 3.68398C4.2137 3.69553 4.23103 3.71286 4.24836 3.73596C4.3581 3.98432 4.48517 4.23268 4.61801 4.48105C4.75663 4.72941 4.88948 4.97199 5.03387 5.21458C5.17249 5.45717 5.29956 5.69975 5.42086 5.94811H5.43241C5.5537 5.69398 5.68077 5.44561 5.80784 5.20303C5.93491 4.96044 6.06775 4.71786 6.2006 4.47527C6.33344 4.23268 6.46051 3.98432 6.58758 3.74751C6.59336 3.72441 6.60491 3.7013 6.62224 3.68975C6.64534 3.6782 6.66844 3.67242 6.69732 3.6782H7.91603C7.94491 3.67242 7.97379 3.68975 7.97956 3.71863C7.98534 3.72441 7.97379 3.74751 7.96223 3.75906Z" fill="#EEEEEE"/>
<path d="M10.6301 9.85261C10.2027 9.85838 9.77527 9.77174 9.38829 9.59269C9.02441 9.42519 8.72406 9.14795 8.51613 8.80718C8.30242 8.45485 8.19846 8.01588 8.19846 7.49028C8.19268 7.06287 8.30242 6.64123 8.51613 6.27157C8.73561 5.89614 9.05329 5.58424 9.43449 5.37631C9.8388 5.15106 10.324 5.04131 10.8958 5.04131C10.9247 5.04131 10.9651 5.04131 11.0171 5.04709C11.0691 5.05287 11.1268 5.05287 11.1961 5.05864V3.23347C11.1961 3.19304 11.2135 3.16993 11.2539 3.16993H12.4264C12.4553 3.16416 12.4784 3.18726 12.4841 3.21037C12.4841 3.21614 12.4841 3.22192 12.4841 3.22192V8.72054C12.4841 8.8245 12.4899 8.94002 12.4957 9.06709C12.5073 9.18838 12.513 9.3039 12.5188 9.40209C12.5188 9.44252 12.5015 9.47718 12.461 9.4945C12.1607 9.62157 11.843 9.71399 11.5196 9.77175C11.225 9.82373 10.9304 9.85261 10.6301 9.85261ZM11.1961 8.69743V6.15606C11.1441 6.1445 11.0922 6.13295 11.0402 6.12718C10.9766 6.1214 10.9131 6.11562 10.8496 6.11562C10.6243 6.11562 10.3991 6.16183 10.1969 6.2658C10.0005 6.36399 9.83303 6.50838 9.70596 6.69321C9.57889 6.87804 9.51536 7.1264 9.51536 7.42674C9.50958 7.6289 9.54423 7.83106 9.61355 8.02166C9.6713 8.17761 9.75794 8.31623 9.87346 8.43174C9.9832 8.53571 10.116 8.61657 10.2662 8.66278C10.4222 8.71476 10.5839 8.73787 10.7456 8.73787C10.8323 8.73787 10.9131 8.73209 10.9882 8.72631C11.0633 8.73209 11.1268 8.72054 11.1961 8.69743Z" fill="#EEEEEE"/>
</svg>
