<svg width="15" height="22" viewBox="0 0 15 22" fill="none" xmlns="http://www.w3.org/2000/svg">
<path d="M4.32782 21.5345C6.24079 21.5345 7.79334 19.9819 7.79334 18.069V14.6035H4.32782C2.41486 14.6035 0.862305 16.156 0.862305 18.069C0.862305 19.9819 2.41486 21.5345 4.32782 21.5345Z" fill="black"/>
<path d="M0.862305 11.1379C0.862305 9.22496 2.41486 7.67241 4.32782 7.67241H7.79334V14.6034H4.32782C2.41486 14.6034 0.862305 13.0509 0.862305 11.1379Z" fill="black"/>
<path d="M0.862305 4.2069C0.862305 2.29393 2.41486 0.741379 4.32782 0.741379H7.79334V7.67241H4.32782C2.41486 7.67241 0.862305 6.11986 0.862305 4.2069Z" fill="black"/>
<path d="M7.79297 0.741379H11.2585C13.1715 0.741379 14.724 2.29393 14.724 4.2069C14.724 6.11986 13.1715 7.67241 11.2585 7.67241H7.79297V0.741379Z" fill="black"/>
<path d="M14.724 11.1379C14.724 13.0509 13.1715 14.6034 11.2585 14.6034C9.34552 14.6034 7.79297 13.0509 7.79297 11.1379C7.79297 9.22496 9.34552 7.67241 11.2585 7.67241C13.1715 7.67241 14.724 9.22496 14.724 11.1379Z" fill="black"/>
</svg>
