<svg width="22" height="22" viewBox="0 0 22 22" fill="none" xmlns="http://www.w3.org/2000/svg">
<path d="M8.97883 15.123C8.71722 14.478 8.2395 13.9441 7.6275 13.6127C7.0155 13.2812 6.3073 13.1729 5.6242 13.3062C4.9411 13.4395 4.3256 13.8062 3.88313 14.3434C3.44066 14.8806 3.19875 15.555 3.19883 16.251C3.19883 16.5591 3.13555 16.8639 3.01291 17.1466C2.89027 17.4292 2.71088 17.6837 2.48587 17.8942C2.26086 18.1046 1.99502 18.2667 1.70482 18.3702C1.41462 18.4737 1.10625 18.5165 0.798828 18.496C1.29328 19.3549 2.05746 20.0266 2.97275 20.4068C3.88804 20.787 4.90323 20.8543 5.86073 20.5984C6.81822 20.3425 7.66445 19.7777 8.26804 18.9916C8.87164 18.2055 9.19883 17.2421 9.19883 16.251C9.19883 15.852 9.12083 15.471 8.97883 15.123ZM8.97883 15.123C10.1678 14.7179 11.305 14.1741 12.3668 13.503M7.32383 13.478C7.72904 12.2864 8.27347 11.1469 8.94583 10.083M12.3658 13.503C14.2622 12.3048 15.8853 10.7212 17.1298 8.85499L21.0058 3.04099C21.1543 2.81955 21.2213 2.55343 21.1954 2.28808C21.1695 2.02273 21.0523 1.77461 20.8637 1.58608C20.6752 1.39756 20.4271 1.28033 20.1617 1.25441C19.8964 1.2285 19.6303 1.29551 19.4088 1.44399L13.5948 5.32099C11.7283 6.56513 10.1444 8.18792 8.94583 10.084C10.4677 10.7645 11.6854 11.9821 12.3658 13.504" stroke="#5093FE" stroke-width="1.5" stroke-linecap="round" stroke-linejoin="round"/>
</svg>
