<svg width="15" height="15" viewBox="0 0 15 15" fill="none" xmlns="http://www.w3.org/2000/svg">
<path d="M7.03843 0.931145C6.46684 0.933801 5.92098 0.982549 5.44068 1.06754C4.02578 1.3175 3.76889 1.8407 3.76889 2.80557V4.07987H7.11247V4.50464H3.76889H2.51408C1.54234 4.50464 0.691465 5.08871 0.425321 6.19981C0.118327 7.47338 0.10471 8.26812 0.425321 9.59794C0.662994 10.5878 1.23059 11.2931 2.20233 11.2931H3.35192V9.76551C3.35192 8.6619 4.30678 7.68844 5.44068 7.68844H8.78036C9.71001 7.68844 10.4521 6.923 10.4521 5.98937V2.80557C10.4521 1.89945 9.68772 1.21877 8.78036 1.06754C8.20598 0.971926 7.61002 0.928489 7.03843 0.931145ZM5.23025 1.95604C5.57561 1.95604 5.85765 2.24269 5.85765 2.59514C5.85765 2.94634 5.57561 3.23034 5.23025 3.23034C4.88364 3.23034 4.60284 2.94634 4.60284 2.59514C4.60284 2.24269 4.88364 1.95604 5.23025 1.95604Z" fill="black"/>
<path d="M10.8693 4.50464V5.98937C10.8693 7.14047 9.89336 8.10931 8.78051 8.10931H5.44083C4.52604 8.10931 3.76904 8.89225 3.76904 9.80837V12.9922C3.76904 13.8983 4.55698 14.4313 5.44083 14.6912C6.49922 15.0024 7.51416 15.0587 8.78051 14.6912C9.62226 14.4475 10.4523 13.957 10.4523 12.9922V11.7179H7.11262V11.2931H10.4523H12.1241C13.0958 11.2931 13.4579 10.6153 13.7959 9.59794C14.1449 8.55058 14.1301 7.54338 13.7959 6.19981C13.5557 5.23244 13.0971 4.50464 12.1241 4.50464H10.8693ZM8.99094 12.5674C9.33755 12.5674 9.61835 12.8514 9.61835 13.2026C9.61835 13.5551 9.33755 13.8417 8.99094 13.8417C8.64557 13.8417 8.36353 13.5551 8.36353 13.2026C8.36353 12.8514 8.64557 12.5674 8.99094 12.5674Z" fill="#777777"/>
</svg>
