<svg width="15" height="14" viewBox="0 0 15 14" fill="none" xmlns="http://www.w3.org/2000/svg">
<g clip-path="url(#clip0_18_2262)">
<path d="M7.08661 8.33323C7.76897 8.33323 8.32214 7.78007 8.32214 7.0977C8.32214 6.41533 7.76897 5.86217 7.08661 5.86217C6.40424 5.86217 5.85107 6.41533 5.85107 7.0977C5.85107 7.78007 6.40424 8.33323 7.08661 8.33323Z" fill="black"/>
<path d="M7.08623 9.62901C10.7477 9.62901 13.7159 8.4957 13.7159 7.09768C13.7159 5.69966 10.7477 4.56635 7.08623 4.56635C3.42475 4.56635 0.456543 5.69966 0.456543 7.09768C0.456543 8.4957 3.42475 9.62901 7.08623 9.62901Z" stroke="black" stroke-width="0.564504"/>
<path d="M4.89431 8.36336C6.72505 11.5343 9.19063 13.5382 10.4014 12.8392C11.6121 12.1402 11.1094 9.00295 9.27871 5.83202C7.44797 2.66109 4.98239 0.657204 3.77167 1.35621C2.56095 2.05522 3.06357 5.19243 4.89431 8.36336Z" stroke="black" stroke-width="0.564504"/>
<path d="M4.89451 5.83203C3.06377 9.00296 2.56115 12.1402 3.77186 12.8392C4.98258 13.5382 7.44817 11.5343 9.27891 8.36336C11.1096 5.19243 11.6123 2.05523 10.4016 1.35622C9.19083 0.657211 6.72525 2.6611 4.89451 5.83203Z" stroke="black" stroke-width="0.564504"/>
</g>
<defs>
<clipPath id="clip0_18_2262">
<rect width="13.8621" height="12.3333" fill="white" transform="translate(0.155273 0.93103)"/>
</clipPath>
</defs>
</svg>
