<svg width="15" height="15" viewBox="0 0 15 15" fill="none" xmlns="http://www.w3.org/2000/svg">
<path d="M0.862305 0.93103V14.7931H14.7244V0.93103H0.862305ZM8.28841 11.6989C8.28841 13.0483 7.49134 13.7061 6.33751 13.7061C5.29538 13.7061 4.69046 13.1665 4.38352 12.5151L5.44421 11.8731C5.64874 12.236 5.80407 12.543 6.25057 12.543C6.62187 12.543 6.92696 12.3756 6.92696 11.7243V7.36699H8.28841V11.6989ZM11.3625 13.6752C10.153 13.6752 9.37139 13.1293 8.98987 12.3756L10.0521 11.7608C10.3306 12.2169 10.6942 12.5207 11.3362 12.5207C11.8758 12.5207 12.1893 12.2818 12.1893 11.9096C12.1893 11.4631 11.8666 11.305 11.2709 11.0432L10.9454 10.9034C10.0054 10.5036 9.38222 10.0011 9.38222 8.94009C9.38222 7.96325 10.1264 7.24972 11.2895 7.24972C12.1178 7.24972 12.7128 7.50716 13.1414 8.26091L12.1252 8.9141C11.9018 8.51402 11.6611 8.35714 11.2879 8.35714C10.9064 8.35714 10.6645 8.59911 10.6645 8.9141C10.6645 9.3049 10.9064 9.46301 11.4646 9.70498L11.7901 9.84453C12.8976 10.3192 13.521 10.8037 13.521 11.8917C13.5213 13.0644 12.6002 13.6752 11.3625 13.6752Z" fill="black"/>
</svg>
