<svg width="18" height="14" viewBox="0 0 18 14" fill="none" xmlns="http://www.w3.org/2000/svg">
<path fill-rule="evenodd" clip-rule="evenodd" d="M11.3158 0.0512892C11.4404 0.0927611 11.5557 0.158384 11.655 0.244408C11.7542 0.330433 11.8356 0.435174 11.8944 0.552648C11.9531 0.670122 11.9882 0.798026 11.9975 0.929054C12.0069 1.06008 11.9903 1.19167 11.9488 1.31629L7.94879 13.3163C7.86498 13.568 7.68462 13.7761 7.44738 13.8948C7.21015 14.0135 6.93548 14.0331 6.68379 13.9493C6.4321 13.8655 6.22401 13.6851 6.1053 13.4479C5.98659 13.2107 5.96698 12.936 6.05079 12.6843L10.0508 0.684289C10.0923 0.559647 10.1579 0.444397 10.2439 0.345124C10.3299 0.24585 10.4347 0.164498 10.5521 0.105714C10.6696 0.0469311 10.7975 0.0118686 10.9286 0.00253018C11.0596 -0.00680828 11.1912 0.0097603 11.3158 0.0512892ZM4.70679 3.29329C4.89426 3.48082 4.99957 3.73512 4.99957 4.00029C4.99957 4.26545 4.89426 4.51976 4.70679 4.70729L2.41379 7.00029L4.70679 9.29329C4.8023 9.38554 4.87848 9.49588 4.93089 9.61788C4.9833 9.73989 5.01088 9.87111 5.01204 10.0039C5.01319 10.1367 4.98789 10.2683 4.93761 10.3912C4.88733 10.5141 4.81307 10.6258 4.71918 10.7197C4.62529 10.8136 4.51364 10.8878 4.39074 10.9381C4.26784 10.9884 4.13616 11.0137 4.00339 11.0125C3.87061 11.0114 3.73939 10.9838 3.61738 10.9314C3.49538 10.879 3.38503 10.8028 3.29279 10.7073L0.292786 7.70729C0.105315 7.51976 0 7.26545 0 7.00029C0 6.73512 0.105315 6.48082 0.292786 6.29329L3.29279 3.29329C3.48031 3.10582 3.73462 3.0005 3.99979 3.0005C4.26495 3.0005 4.51926 3.10582 4.70679 3.29329ZM13.2928 3.29329C13.4803 3.10582 13.7346 3.0005 13.9998 3.0005C14.265 3.0005 14.5193 3.10582 14.7068 3.29329L17.7068 6.29329C17.8943 6.48082 17.9996 6.73512 17.9996 7.00029C17.9996 7.26545 17.8943 7.51976 17.7068 7.70729L14.7068 10.7073C14.6145 10.8028 14.5042 10.879 14.3822 10.9314C14.2602 10.9838 14.129 11.0114 13.9962 11.0125C13.8634 11.0137 13.7317 10.9884 13.6088 10.9381C13.4859 10.8878 13.3743 10.8136 13.2804 10.7197C13.1865 10.6258 13.1122 10.5141 13.062 10.3912C13.0117 10.2683 12.9864 10.1367 12.9875 10.0039C12.9887 9.87111 13.0163 9.73989 13.0687 9.61788C13.1211 9.49588 13.1973 9.38554 13.2928 9.29329L15.5858 7.00029L13.2928 4.70729C13.1053 4.51976 13 4.26545 13 4.00029C13 3.73512 13.1053 3.48082 13.2928 3.29329Z" fill="white"/>
</svg>
